<svg width="297.248779296875px" height="69.21501464843749px" xmlns="http://www.w3.org/2000/svg" viewBox="101.3756103515625 40.392492675781256 297.248779296875 69.21501464843749" style="background: rgba(0, 0, 0, 0);" preserveAspectRatio="xMidYMid"><defs><filter id="editing-extrude-glow"><feFlood flood-color="#333333" result="flood-1"></feFlood><feMorphology operator="erode" radius="1" in="SourceAlpha" result="erode"></feMorphology><feComposite operator="in" in="flood-1" in2="erode" result="comp1"></feComposite><feConvolveMatrix order="3,3" divisor="1" in="comp1" result="convolve" kernelMatrix="0 0 0 1 1 1 0 0 0"></feConvolveMatrix><feOffset dx="-3" dy="0" in="convolve" result="extrude"></feOffset><feComposite operator="in" in="flood-1" in2="extrude" result="comp-extrude"></feComposite><feFlood flood-color="#000000" result="flood-2"></feFlood><feComposite operator="in" in="flood-2" in2="SourceAlpha" result="comp2"></feComposite><feMorphology operator="dilate" radius="1" in="comp2" result="dilate"></feMorphology><feOffset dx="-4.5" dy="0" in="dilate" result="offset"></feOffset><feGaussianBlur in="offset" stdDeviation="5.8" result="blur"></feGaussianBlur><feComponentTransfer in="blur" result="shadow"><feFuncA type="linear" slope="0.8" intercept="-0.2"></feFuncA></feComponentTransfer><feMerge><feMergeNode in="shadow"></feMergeNode><feMergeNode in="comp-extrude"></feMergeNode><feMergeNode in="SourceGraphic"></feMergeNode></feMerge></filter></defs><g filter="url(#editing-extrude-glow)"><g transform="translate(148.29281371831894, 85.88000011444092)"><path d="M12.62-14.32L12.62-14.32L12.62-14.32Q13.08-15.25 13.08-16.12L13.08-16.12L13.08-16.12Q13.08-16.99 12.99-17.47L12.99-17.47L12.99-17.47Q12.90-17.95 12.68-18.32L12.68-18.32L12.68-18.32Q12.21-19.13 11.28-19.13L11.28-19.13L11.28-19.13Q10.14-19.13 9.21-18.29L9.21-18.29L9.21-18.29Q8.21-17.42 8.21-16.06L8.21-16.06L8.21-16.06Q8.21-15.19 8.82-14.52L8.82-14.52L8.82-14.52Q9.42-13.86 10.35-13.24L10.35-13.24L10.35-13.24Q11.28-12.62 12.34-12.00L12.34-12.00L12.34-12.00Q13.39-11.38 14.32-10.63L14.32-10.63L14.32-10.63Q16.46-8.93 16.46-6.63L16.46-6.63L16.46-6.63Q16.46-5.08 15.64-3.77L15.64-3.77L15.64-3.77Q14.82-2.45 13.45-1.49L13.45-1.49L13.45-1.49Q10.48 0.62 6.54 0.62L6.54 0.62L6.54 0.62Q3.35 0.62 1.71-0.42L1.71-0.42L1.71-0.42Q0.06-1.46 0.06-3.04L0.06-3.04L0.06-3.04Q0.06-5.86 2.26-6.57L2.26-6.57L2.26-6.57Q2.88-6.79 3.83-6.79L3.83-6.79L3.83-6.79Q4.77-6.79 5.86-6.39L5.86-6.39L5.86-6.39Q5.36-5.12 5.36-3.97L5.36-3.97L5.36-3.97Q5.36-1.49 7.13-1.49L7.13-1.49L7.13-1.49Q8.28-1.49 9.22-2.33L9.22-2.33L9.22-2.33Q10.17-3.16 10.17-4.11L10.17-4.11L10.17-4.11Q10.17-5.05 9.56-5.74L9.56-5.74L9.56-5.74Q8.96-6.42 8.06-6.96L8.06-6.96L8.06-6.96Q7.16-7.50 6.12-8.03L6.12-8.03L6.12-8.03Q5.08-8.56 4.18-9.30L4.18-9.30L4.18-9.30Q2.08-11.01 2.08-13.73L2.08-13.73L2.08-13.73Q2.08-15.50 2.94-16.88L2.94-16.88L2.94-16.88Q3.81-18.26 5.21-19.19L5.21-19.19L5.21-19.19Q8.00-21.08 11.42-21.08L11.42-21.08L11.42-21.08Q14.85-21.08 16.51-20.06L16.51-20.06L16.51-20.06Q18.17-19.03 18.17-17.30L18.17-17.30L18.17-17.30Q18.17-15.78 16.99-14.82L16.99-14.82L16.99-14.82Q15.96-14.01 14.72-14.01L14.72-14.01L14.72-14.01Q13.48-14.01 12.62-14.32ZM19.59-19.22L19.59-19.22L19.59-19.22Q20.03-20.09 20.97-20.57L20.97-20.57L20.97-20.57Q21.92-21.05 23.22-21.05L23.22-21.05L23.22-21.05Q25.27-21.05 26.49-19.58L26.49-19.58L26.49-19.58Q27.71-18.10 27.71-14.88L27.71-14.88L27.71-3.81L34.81-20.43L38.47-20.43L39.31-4.74L39.22-3.84L46.59-20.43L50.84-20.43L40.92 0L34.32 0L33.70-9.42L29.60 0L22.13 0L21.20-14.88L21.20-14.88Q21.11-16.55 20.66-17.65L20.66-17.65L20.66-17.65Q20.21-18.75 19.59-19.22ZM62.74-4.77L62.74-4.77L62.74-4.77Q63.33-4.03 63.33-2.82L63.33-2.82L63.33-2.82Q63.33-1.15 62.09-0.26L62.09-0.26L62.09-0.26Q60.85 0.62 58.90 0.62L58.90 0.62L58.90 0.62Q57.78 0.62 56.08 0.37L56.08 0.37L56.08 0.37Q52.73-0.15 51.71-0.15L51.71-0.15L51.71-0.15Q50.69-0.15 50.28-0.11L50.28-0.11L50.28-0.11Q49.88-0.06 49.23 0L49.23 0L53.04-20.46L66.40-20.46L66.40-20.46Q66.40-18.57 65.49-17.58L65.49-17.58L65.49-17.58Q64.57-16.59 62.78-16.59L62.78-16.59L62.78-16.59Q60.98-16.59 59.15-17.42L59.15-17.42L58.19-12.00L63.71-12.00L63.71-12.00Q63.71-10.35 62.90-9.44L62.90-9.44L62.90-9.44Q62.09-8.53 60.74-8.53L60.74-8.53L60.74-8.53Q59.40-8.53 58.56-8.83L58.56-8.83L58.56-8.83Q57.72-9.14 57.63-9.24L57.63-9.24L56.51-3.38L56.51-3.38Q57.26-3.29 58.65-3.29L58.65-3.29L58.65-3.29Q61.04-3.29 62.74-4.77ZM79.42-4.77L79.42-4.77L79.42-4.77Q80.01-4.03 80.01-2.82L80.01-2.82L80.01-2.82Q80.01-1.15 78.77-0.26L78.77-0.26L78.77-0.26Q77.53 0.62 75.58 0.62L75.58 0.62L75.58 0.62Q74.46 0.62 72.76 0.37L72.76 0.37L72.76 0.37Q69.41-0.15 68.39-0.15L68.39-0.15L68.39-0.15Q67.36-0.15 66.96-0.11L66.96-0.11L66.96-0.11Q66.56-0.06 65.91 0L65.91 0L69.72-20.46L83.08-20.46L83.08-20.46Q83.08-18.57 82.17-17.58L82.17-17.58L82.17-17.58Q81.25-16.59 79.45-16.59L79.45-16.59L79.45-16.59Q77.66-16.59 75.83-17.42L75.83-17.42L74.87-12.00L80.38-12.00L80.38-12.00Q80.38-10.35 79.58-9.44L79.58-9.44L79.58-9.44Q78.77-8.53 77.42-8.53L77.42-8.53L77.42-8.53Q76.07-8.53 75.24-8.83L75.24-8.83L75.24-8.83Q74.40-9.14 74.31-9.24L74.31-9.24L73.19-3.38L73.19-3.38Q73.94-3.29 75.33-3.29L75.33-3.29L75.33-3.29Q77.72-3.29 79.42-4.77ZM85.34-15.10L85.34-15.10L85.34-15.10Q84.29-15.90 84.29-17.62L84.29-17.62L84.29-17.62Q84.29-19.34 85.42-20.24L85.42-20.24L85.42-20.24Q86.55-21.14 88.50-21.14L88.50-21.14L88.50-21.14Q89.75-21.14 92.69-20.71L92.69-20.71L94.80-20.40L94.80-20.40Q95.85-20.27 96.95-20.27L96.95-20.27L96.95-20.27Q98.05-20.27 98.80-20.74L98.80-20.74L98.80-20.74Q99.91-19.75 99.91-18.32L99.91-18.32L99.91-18.32Q99.91-16.89 98.64-15.87L98.64-15.87L98.64-15.87Q97.34-14.79 95.67-14.79L95.67-14.79L95.67-14.79Q94.86-14.79 93.56-15.00L93.56-15.00L93.56-15.00Q92.04-10.23 92.04-6.91L92.04-6.91L92.04-6.91Q92.04-3.60 93.71-1.86L93.71-1.86L93.71-1.86Q92.94-0.46 91.79 0.08L91.79 0.08L91.79 0.08Q90.64 0.62 88.92 0.62L88.92 0.62L88.92 0.62Q87.20 0.62 86.13-0.33L86.13-0.33L86.13-0.33Q85.06-1.27 85.06-3.22L85.06-3.22L85.06-3.22Q85.06-5.49 86.30-9.21L86.30-9.21L86.30-9.21Q87.54-12.90 89.40-15.72L89.40-15.72L89.40-15.72Q88.50-15.81 87.58-15.81L87.58-15.81L87.58-15.81Q85.65-15.81 85.34-15.10ZM107.79-15.10L107.79-15.10L107.79-15.10Q106.73-15.90 106.73-17.62L106.73-17.62L106.73-17.62Q106.73-19.34 107.86-20.24L107.86-20.24L107.86-20.24Q109.00-21.14 110.95-21.14L110.95-21.14L110.95-21.14Q112.19-21.14 115.13-20.71L115.13-20.71L117.24-20.40L117.24-20.40Q118.30-20.27 119.40-20.27L119.40-20.27L119.40-20.27Q120.50-20.27 121.24-20.74L121.24-20.74L121.24-20.74Q122.36-19.75 122.36-18.32L122.36-18.32L122.36-18.32Q122.36-16.89 121.09-15.87L121.09-15.87L121.09-15.87Q119.78-14.79 118.11-14.79L118.11-14.79L118.11-14.79Q117.30-14.79 116.00-15.00L116.00-15.00L116.00-15.00Q114.48-10.23 114.48-6.91L114.48-6.91L114.48-6.91Q114.48-3.60 116.16-1.86L116.16-1.86L116.16-1.86Q115.38-0.46 114.23 0.08L114.23 0.08L114.23 0.08Q113.09 0.62 111.37 0.62L111.37 0.62L111.37 0.62Q109.65 0.62 108.58-0.33L108.58-0.33L108.58-0.33Q107.51-1.27 107.51-3.22L107.51-3.22L107.51-3.22Q107.51-5.49 108.75-9.21L108.75-9.21L108.75-9.21Q109.99-12.90 111.85-15.72L111.85-15.72L111.85-15.72Q110.95-15.81 110.02-15.81L110.02-15.81L110.02-15.81Q108.10-15.81 107.79-15.10ZM121.83-7.56L121.83-7.56L121.83-7.56Q121.83-13.42 124.87-17.11L124.87-17.11L124.87-17.11Q128.09-21.11 133.70-21.11L133.70-21.11L133.70-21.11Q137.76-21.11 139.81-19.14L139.81-19.14L139.81-19.14Q141.86-17.17 141.86-13.02L141.86-13.02L141.86-13.02Q141.86-6.70 138.63-3.01L138.63-3.01L138.63-3.01Q135.44 0.62 130.08 0.62L130.08 0.62L130.08 0.62Q125.89 0.62 123.86-1.47L123.86-1.47L123.86-1.47Q121.83-3.56 121.83-7.56ZM129.98-13.98L129.98-13.98L129.98-13.98Q128.59-8.40 128.59-4.00L128.59-4.00L128.59-4.00Q128.59-2.94 128.94-2.26L128.94-2.26L128.94-2.26Q129.30-1.58 130.25-1.58L130.25-1.58L130.25-1.58Q131.19-1.58 131.78-2.03L131.78-2.03L131.78-2.03Q132.37-2.48 132.83-3.50L132.83-3.50L132.83-3.50Q133.58-5.18 134.28-8.73L134.28-8.73L134.28-8.73Q134.97-12.28 135.04-13.75L135.04-13.75L135.04-13.75Q135.10-15.22 135.10-16.34L135.10-16.34L135.10-16.34Q135.10-17.45 134.76-18.17L134.76-18.17L134.76-18.17Q134.42-18.88 133.50-18.88L133.50-18.88L133.50-18.88Q132.59-18.88 131.97-18.32L131.97-18.32L131.97-18.32Q130.82-17.27 129.98-13.98ZM143.84-7.56L143.84-7.56L143.84-7.56Q143.84-13.42 146.88-17.11L146.88-17.11L146.88-17.11Q150.10-21.11 155.71-21.11L155.71-21.11L155.71-21.11Q159.77-21.11 161.82-19.14L161.82-19.14L161.82-19.14Q163.87-17.17 163.87-13.02L163.87-13.02L163.87-13.02Q163.87-6.70 160.64-3.01L160.64-3.01L160.64-3.01Q157.45 0.62 152.09 0.62L152.09 0.62L152.09 0.62Q147.90 0.62 145.87-1.47L145.87-1.47L145.87-1.47Q143.84-3.56 143.84-7.56ZM151.99-13.98L151.99-13.98L151.99-13.98Q150.60-8.40 150.60-4.00L150.60-4.00L150.60-4.00Q150.60-2.94 150.95-2.26L150.95-2.26L150.95-2.26Q151.31-1.58 152.26-1.58L152.26-1.58L152.26-1.58Q153.20-1.58 153.79-2.03L153.79-2.03L153.79-2.03Q154.38-2.48 154.84-3.50L154.84-3.50L154.84-3.50Q155.59-5.18 156.29-8.73L156.29-8.73L156.29-8.73Q156.98-12.28 157.05-13.75L157.05-13.75L157.05-13.75Q157.11-15.22 157.11-16.34L157.11-16.34L157.11-16.34Q157.11-17.45 156.77-18.17L156.77-18.17L156.77-18.17Q156.43-18.88 155.51-18.88L155.51-18.88L155.51-18.88Q154.60-18.88 153.98-18.32L153.98-18.32L153.98-18.32Q152.83-17.27 151.99-13.98ZM167.86-15.10L167.86-15.10L167.86-15.10Q166.81-15.90 166.81-17.62L166.81-17.62L166.81-17.62Q166.81-19.34 167.94-20.24L167.94-20.24L167.94-20.24Q169.07-21.14 171.03-21.14L171.03-21.14L171.03-21.14Q172.27-21.14 175.21-20.71L175.21-20.71L177.32-20.40L177.32-20.40Q178.37-20.27 179.47-20.27L179.47-20.27L179.47-20.27Q180.57-20.27 181.32-20.74L181.32-20.74L181.32-20.74Q182.43-19.75 182.43-18.32L182.43-18.32L182.43-18.32Q182.43-16.89 181.16-15.87L181.16-15.87L181.16-15.87Q179.86-14.79 178.19-14.79L178.19-14.79L178.19-14.79Q177.38-14.79 176.08-15.00L176.08-15.00L176.08-15.00Q174.56-10.23 174.56-6.91L174.56-6.91L174.56-6.91Q174.56-3.60 176.23-1.86L176.23-1.86L176.23-1.86Q175.46-0.46 174.31 0.08L174.31 0.08L174.31 0.08Q173.17 0.62 171.45 0.62L171.45 0.62L171.45 0.62Q169.72 0.62 168.66-0.33L168.66-0.33L168.66-0.33Q167.59-1.27 167.59-3.22L167.59-3.22L167.59-3.22Q167.59-5.49 168.83-9.21L168.83-9.21L168.83-9.21Q170.07-12.90 171.93-15.72L171.93-15.72L171.93-15.72Q171.03-15.81 170.10-15.81L170.10-15.81L170.10-15.81Q168.17-15.81 167.86-15.10ZM193.01-2.33L193.01-2.33L193.01-2.33Q193.01-4.50 193.87-8.83L193.87-8.83L189.29-8.83L187.58 0L181.10 0L185.04-20.46L191.58-20.46L189.78-11.31L194.37-11.31L196.07-20.46L202.62-20.46L202.62-20.46Q202.18-18.17 201.62-15.59L201.62-15.59L200.57-10.54L200.57-10.54Q199.39-4.65 199.39-2.08L199.39-2.08L199.39-2.08Q199.39-1.02 199.73-0.43L199.73-0.43L199.73-0.43Q198.18 0.62 196.37 0.62L196.37 0.62L196.37 0.62Q194.56 0.62 193.78-0.25L193.78-0.25L193.78-0.25Q193.01-1.12 193.01-2.33Z" fill="#eb6c6c"></path></g></g><style>text {
  font-size: 64px;
  font-family: Arial Black;
  dominant-baseline: central;
  text-anchor: middle;
}</style></svg>